<?xml version="1.0" encoding="utf-8"?>
<!-- Generator: Adobe Illustrator 21.1.0, SVG Export Plug-In . SVG Version: 6.00 Build 0)  -->
<svg version="1.1"
	 id="svg2" inkscape:version="0.91 r13725" sodipodi:docname="Kakao_corp.svg" xmlns:cc="http://creativecommons.org/ns#" xmlns:dc="http://purl.org/dc/elements/1.1/" xmlns:inkscape="http://www.inkscape.org/namespaces/inkscape" xmlns:rdf="http://www.w3.org/1999/02/22-rdf-syntax-ns#" xmlns:sodipodi="http://sodipodi.sourceforge.net/DTD/sodipodi-0.dtd" xmlns:svg="http://www.w3.org/2000/svg"
	 xmlns="http://www.w3.org/2000/svg" xmlns:xlink="http://www.w3.org/1999/xlink" x="0px" y="0px" viewBox="0 0 99.6 92.1"
	 style="enable-background:new 0 0 99.6 92.1;" xml:space="preserve">
<style type="text/css">
	.st0{clip-path:url(#SVGID_2_);}
	.st1{fill:#3C1E1E;}
</style>
<sodipodi:namedview  bordercolor="#666666" borderopacity="1" fit-margin-bottom="1" fit-margin-left="1" fit-margin-right="1" fit-margin-top="1" gridtolerance="10" guidetolerance="10" id="namedview349" inkscape:current-layer="svg2" inkscape:cx="41.067253" inkscape:cy="21.64234" inkscape:pageopacity="0" inkscape:pageshadow="2" inkscape:window-height="988" inkscape:window-maximized="1" inkscape:window-width="1680" inkscape:window-x="-8" inkscape:window-y="-8" inkscape:zoom="3.3640075" objecttolerance="10" pagecolor="#ffffff" showgrid="false">
	</sodipodi:namedview>
<g id="g686" transform="matrix(1,0,0,-1,-362.26358,234.09895)">
	<g>
		<defs>
			<rect id="SVGID_1_" x="0" y="0" width="841.9" height="595.3"/>
		</defs>
		<clipPath id="SVGID_2_">
			<use xlink:href="#SVGID_1_"  style="overflow:visible;"/>
		</clipPath>
		<g id="g688" class="st0">
			<g id="g694" transform="translate(163.2612,376.6777)">
				<path id="path696" inkscape:connector-curvature="0" class="st1" d="M248.8-143.6c-27,0-48.8-17.3-48.8-38.6
					c0-13.7,9.1-25.7,22.6-32.5l-4.6-17.2c-0.2-0.5,0-1.1,0.4-1.5c0.3-0.3,0.6-0.4,1-0.4c0.3,0,0.6,0.1,0.9,0.3L240-220
					c2.9-0.4,5.8-0.6,8.8-0.6c27,0,48.8,17.3,48.8,38.6S275.8-143.6,248.8-143.6"/>
			</g>
		</g>
	</g>
</g>
</svg>
